<svg xmlns="http://www.w3.org/2000/svg" viewBox="0 0 800 200">
  <style>
    .background { fill: lavender; }
    .cell { stroke: #ddd; stroke-width: 1; fill: #ffffff; }
    .alive { fill: #0099cc; }
    .text { font-family: 'Courier New', monospace; fill: #333333; }
    @keyframes blink {
      0%, 100% { opacity: 0; }
      50% { opacity: 1; }
    }
    .blinker-vertical {
      animation: blink 2s infinite;
    }
    .blinker-horizontal {
      animation: blink 2s infinite;
      animation-delay: 1s;
    }
  </style>

  <rect class="background" width="100%" height="100%"/>

  <!-- Game of Life Grid -->
  <g transform="translate(50, 50)">
    <rect class="cell" x="0" y="0" width="30" height="30" />
    <rect class="cell blinker-vertical alive" x="30" y="0" width="30" height="30" />
    <rect class="cell" x="60" y="0" width="30" height="30" />
    <rect class="cell blinker-horizontal alive" x="0" y="30" width="30" height="30" />
    <rect class="cell alive" x="30" y="30" width="30" height="30" />
    <rect class="cell blinker-horizontal alive" x="60" y="30" width="30" height="30" />
    <rect class="cell" x="0" y="60" width="30" height="30" />
    <rect class="cell blinker-vertical alive" x="30" y="60" width="30" height="30" />
    <rect class="cell" x="60" y="60" width="30" height="30" />
  </g>

  <!-- Title -->
  <text class="text" x="400" y="70" text-anchor="middle" font-size="24" font-weight="bold">Conway's Game of Life</text>

  <!-- Subtitle -->
  <text class="text" x="400" y="100" text-anchor="middle" font-size="18">Explore, Create, Evolve</text>

  <!-- Controls representation -->
  <rect x="300" y="130" width="60" height="30" fill="#fff" rx="5" ry="5"/>
  <text class="text" x="330" y="152" text-anchor="middle" fill="#ffffff" font-size="14">Start</text>

  <rect x="370" y="130" width="60" height="30" fill="#fff" rx="5" ry="5"/>
  <text class="text" x="400" y="152" text-anchor="middle" fill="white" font-size="14">Clear</text>

  <rect x="440" y="130" width="60" height="30" fill="#fff" rx="5" ry="5"/>
  <text class="text" x="470" y="152" text-anchor="middle" fill="white" font-size="14">Random</text>
</svg>